<svg width="386" height="433" viewBox="0 0 386 433" fill="none" xmlns="http://www.w3.org/2000/svg">
<rect y="35" width="386" height="386" rx="193" fill="#FAFAFA"/>
<g filter="url(#filter0_d_183_204)">
<path d="M82 122C82 116.477 86.4772 112 92 112H295C300.523 112 305 116.477 305 122V397.554C305 402.431 301.481 406.597 296.673 407.413L194.68 424.715C193.568 424.904 192.432 424.903 191.32 424.712L90.3128 407.423C85.5108 406.601 82 402.438 82 397.566V122Z" fill="white"/>
</g>
<path d="M100 150C100 145.582 103.582 142 108 142H276C280.418 142 284 145.582 284 150V383.224C284 387.153 281.169 390.492 277.282 391.066C261.355 393.416 220.466 399 191.5 399C162.593 399 122.432 393.439 106.699 391.08C102.822 390.499 100 387.164 100 383.244V150Z" fill="#ECFDF2"/>
<rect x="114" y="337" width="156" height="35" rx="6" fill="#37DC6F"/>
<path d="M178.609 347.926H177.311V356.895H178.609V347.926ZM168.52 354.133L169.217 355.158C170.652 354.604 171.712 353.47 172.252 352.048C172.799 353.374 173.845 354.413 175.26 354.939L175.93 353.9C174.036 353.244 172.901 351.604 172.908 349.812V348.596H171.582V349.812C171.575 351.658 170.44 353.422 168.52 354.133ZM170.598 359.902H178.979V358.85H171.91V356.047H170.598V359.902ZM184.704 350.523V350.373H187.37V349.334H184.717V347.857H183.419V349.334H180.753V350.373H183.419V350.523C183.419 352.103 182.27 353.565 180.411 354.16L181.026 355.158C182.489 354.7 183.555 353.695 184.089 352.431C184.649 353.565 185.715 354.44 187.137 354.844L187.753 353.832C185.886 353.312 184.704 351.966 184.704 350.523ZM182.38 357.865C182.373 359.308 183.952 360.142 186.522 360.135C189.086 360.142 190.658 359.308 190.665 357.865C190.658 356.43 189.086 355.616 186.522 355.609C183.952 355.616 182.373 356.43 182.38 357.865ZM183.665 357.865C183.658 357.072 184.724 356.621 186.522 356.621C188.32 356.621 189.373 357.072 189.38 357.865C189.373 358.658 188.32 359.13 186.522 359.137C184.724 359.13 183.658 358.658 183.665 357.865ZM186.987 352.41H189.325V355.336H190.624V347.912H189.325V351.344H186.987V352.41ZM201.913 347.912H200.628V360.162H201.913V353.955H203.882V352.875H201.913V347.912ZM192.302 350.893H199.562V349.826H196.622V348.076H195.324V349.826H192.302V350.893ZM192.931 354.639C192.931 356.32 194.216 357.489 195.98 357.496C197.737 357.489 199.022 356.32 199.029 354.639C199.022 352.971 197.737 351.795 195.98 351.795C194.216 351.795 192.931 352.971 192.931 354.639ZM194.175 354.639C194.168 353.593 194.934 352.868 195.98 352.861C197.019 352.868 197.778 353.593 197.784 354.639C197.778 355.705 197.019 356.416 195.98 356.402C194.934 356.416 194.168 355.705 194.175 354.639ZM214.516 347.912H213.203V360.162H214.516V347.912ZM204.453 356.881L205.137 357.934C209.341 355.917 210.865 352.813 210.865 349.225H205.041V350.264H209.553C209.3 353.121 207.707 355.329 204.453 356.881Z" fill="white"/>
<line x1="167" y1="128" x2="218" y2="128" stroke="#F0F0F0" stroke-width="4" stroke-linecap="round"/>
<path d="M182.818 163.263H177.638V161.553H175.247V163.263H170.084V165.155H182.818V163.263ZM169.52 175.033H183.449V173.124H169.52V175.033ZM171.163 168.841C171.163 170.792 173.205 171.97 176.443 171.962C179.63 171.97 181.697 170.792 181.689 168.841C181.697 166.898 179.63 165.736 176.443 165.736C173.205 165.736 171.163 166.898 171.163 168.841ZM173.604 168.841C173.604 168.002 174.575 167.612 176.443 167.612C178.252 167.612 179.232 168.002 179.232 168.841C179.232 169.688 178.252 170.078 176.443 170.069C174.575 170.078 173.604 169.688 173.604 168.841ZM191.492 162.067C188.263 162.076 185.723 163.835 185.731 166.5C185.723 169.206 188.263 170.966 191.492 170.966C194.721 170.966 197.277 169.206 197.286 166.5C197.277 163.835 194.721 162.076 191.492 162.067ZM184.552 174.801H198.481V172.875H184.552V174.801ZM188.055 166.5C188.055 164.939 189.491 163.993 191.492 164.01C193.492 163.993 194.912 164.939 194.912 166.5C194.912 168.11 193.492 169.007 191.492 169.007C189.491 169.007 188.055 168.11 188.055 166.5ZM206.524 161.619C203.137 161.619 200.921 162.765 200.929 164.641C200.921 166.492 203.137 167.621 206.524 167.612C209.936 167.621 212.111 166.492 212.119 164.641C212.111 162.765 209.936 161.619 206.524 161.619ZM199.585 170.252H213.48V168.359H199.585V170.252ZM201.178 176.428H211.82V171.182H201.178V176.428ZM203.42 164.641C203.403 163.844 204.507 163.47 206.524 163.479C208.525 163.47 209.645 163.844 209.645 164.641C209.645 165.404 208.525 165.77 206.524 165.77C204.507 165.77 203.403 165.404 203.42 164.641ZM203.519 174.519V173.058H209.496V174.519H203.519Z" fill="#0CB847"/>
<rect x="114" y="195" width="157" height="130" rx="5" fill="white"/>
<rect x="132" y="213" width="22" height="22" rx="2" fill="#EFEFEF"/>
<rect x="160" y="213" width="94" height="9" rx="0.5" fill="#EFEFEF"/>
<rect x="160" y="226" width="60" height="9" rx="0.5" fill="#EFEFEF"/>
<rect x="132" y="249" width="22" height="22" rx="2" fill="#EFEFEF"/>
<rect x="160" y="249" width="50" height="9" rx="0.5" fill="#EFEFEF"/>
<rect x="160" y="262" width="94" height="9" rx="0.5" fill="#EFEFEF"/>
<rect x="132" y="285" width="22" height="22" rx="2" fill="#EFEFEF"/>
<rect x="160" y="285" width="50" height="9" rx="0.5" fill="#EFEFEF"/>
<rect x="160" y="298" width="94" height="9" rx="0.5" fill="#EFEFEF"/>
<path d="M343.933 282.913L342.771 282.388L327.634 315.899C327.105 315.212 326.048 314.455 324.979 313.972C321.168 312.251 315.532 313.454 314.041 316.754C313.012 319.032 314.672 321.18 316.81 322.146C321.272 324.161 326.701 322.92 328.884 318.087L339.423 294.754C343.753 298.053 345.515 303.941 343.079 309.333C341.4 313.051 337.731 316.094 335.743 317.771L336.951 318.316C340.798 315.745 344.214 312.643 345.978 308.739C347.93 304.417 346.428 299.317 344.706 295.573C342.983 291.829 341.917 287.375 343.933 282.913Z" fill="#BCBCBC"/>
<path d="M53.0299 276.985L54.2905 276.794L59.801 313.149C60.4963 312.631 61.7187 312.188 62.8784 312.012C67.0132 311.386 72.1138 314.069 72.6565 317.649C73.031 320.119 70.8521 321.739 68.5326 322.091C63.6919 322.825 58.8006 320.161 58.0057 314.917L54.169 289.604C49.1083 291.61 45.8203 296.802 46.7069 302.651C47.3183 306.685 50.0277 310.607 51.4886 312.759L50.1776 312.957C47.1687 309.442 44.7191 305.532 44.0771 301.296C43.3663 296.606 46.1913 292.103 48.8621 288.965C51.5329 285.826 53.7636 281.825 53.0299 276.985Z" fill="#BCBCBC"/>
<path d="M56.3229 223.884L57.0957 224.091L51.1242 246.377C51.6541 246.254 52.4682 246.307 53.1792 246.497C55.7138 247.176 57.9716 250.001 57.3836 252.195C56.9778 253.71 55.318 254.093 53.8961 253.713C50.9288 252.917 48.7863 250.157 49.6476 246.942L53.8053 231.426C50.3919 231.306 47.1964 233.465 46.2356 237.05C45.5731 239.523 46.1447 242.459 46.4437 244.063L45.64 243.848C44.7941 241.07 44.3688 238.206 45.0645 235.61C45.8347 232.735 48.5909 230.857 50.9153 229.724C53.2398 228.591 55.5278 226.852 56.3229 223.884Z" fill="#BCBCBC"/>
<path d="M339.081 231.212L338.308 231.005L332.337 253.291C331.94 252.919 331.208 252.557 330.497 252.367C327.963 251.688 324.595 253.005 324.007 255.2C323.601 256.714 324.847 257.876 326.269 258.257C329.236 259.052 332.472 257.733 333.333 254.518L337.491 239.002C340.507 240.605 342.195 244.072 341.234 247.657C340.572 250.13 338.609 252.387 337.548 253.627L338.351 253.842C340.473 251.859 342.273 249.592 342.969 246.996C343.739 244.121 342.291 241.116 340.845 238.973C339.398 236.829 338.286 234.179 339.081 231.212Z" fill="#BCBCBC"/>
<defs>
<filter id="filter0_d_183_204" x="22" y="0" width="343" height="432.856" filterUnits="userSpaceOnUse" color-interpolation-filters="sRGB">
<feFlood flood-opacity="0" result="BackgroundImageFix"/>
<feColorMatrix in="SourceAlpha" type="matrix" values="0 0 0 0 0 0 0 0 0 0 0 0 0 0 0 0 0 0 127 0" result="hardAlpha"/>
<feOffset dy="-52"/>
<feGaussianBlur stdDeviation="30"/>
<feComposite in2="hardAlpha" operator="out"/>
<feColorMatrix type="matrix" values="0 0 0 0 0.945833 0 0 0 0 0.945833 0 0 0 0 0.945833 0 0 0 0.25 0"/>
<feBlend mode="normal" in2="BackgroundImageFix" result="effect1_dropShadow_183_204"/>
<feBlend mode="normal" in="SourceGraphic" in2="effect1_dropShadow_183_204" result="shape"/>
</filter>
</defs>
</svg>
